<?xml version="1.0" encoding="utf-8"?>
<?xml-stylesheet type="text/xsl" href="rss1.xsl"?>
<rss version="2.0" xmlns:atom="http://www.w3.org/2005/Atom" xmlns:content="http://purl.org/rss/1.0/modules/content/" xmlns:dc="http://purl.org/dc/elements/1.1/" xmlns:media="http://search.yahoo.com/mrss/">
<channel>
 <title>Getty</title>
 <link>http://www.gettyimg.com/</link>
 <atom:link href="http://www.gettyimg.com/" rel="self" type="application/rss+xml" />

 
                <item>
                <title><![CDATA[【Apple Music】WEB-RiP - B.o.B - Nothin' On You (feat. Bruno Mars) [Apple HD Music Video]]]></title>
                <link><![CDATA[https://sharemania.us/threads/b-o-b-nothin-on-you-feat-bruno-mars-apple-hd-music-video.241895/]]></link>
                <description><![CDATA[<article>
<blockquote class="messageText SelectQuoteContainer ugc baseHtml">
<span style="font-size: 22px"><b>B.o.B - Nothin' On You (feat. Bruno Mars) [Apple HD Music Video]</b></span><br>
<br>
<img src="https://imgur.com/9rQLboW.jpg" class="bbCodeImage LbImage" alt="[​IMG]" data-url="https://imgur.com/9rQLboW.jpg" style=""><br>
<br>
<div class="bbCodeBlock bbCodeCode">
<div class="type">Code:</div>
<pre>General
Format                         : MPEG-4
Codec ID                       : M4V  (isom/iso4/M4V /mp42)
File size                      : 262 MiB
Duration                       : 3 min 37 s
Overall bit rate mode          : Variable
Overall bit rate               : 10.1 Mb/s
Movie name                     : Nothin' On You (feat. Bruno Mars)
Album                          : B.o.B Presents: The Adventures of Bobby Ray (Deluxe)
Album/Performer                : B.o.B
Part/Position                  : 1
Part/Total                     : 1
Track name/Position            : 16
Track name/Total               : 16
Performer                      : B.o.B
Genre                          : Hip-Hop/Rap
ContentType                    : Music Video
Recorded date                  : UTC 2010-03-09 08:00:00
Encoded date                   : UTC 2024-03-22 12:41:37
Tagged date                    : UTC 2024-03-22 12:41:37
Copyright                      : ℗ © 2009 Atlantic Recording Corporation for the United States and WEA International Inc. for the world outside of the United States.
Cover                          : Yes
Rating                         : None
GenreID                        : 1618
AppleStoreCountry              : Canada
AlbumTitleID                   : 259700865
PlayListID                     : 368016701
AppleStoreCatalogID            : 368016767

Video
ID                             : 2
Format                         : AVC
Format/Info                    : Advanced Video Codec
Format profile                 : High@L4
Format settings                : CABAC / 4 Ref Frames
Format settings, CABAC         : Yes
Format settings, Reference fra : 4 frames
Codec ID                       : avc1
Codec ID/Info                  : Advanced Video Coding
Duration                       : 3 min 37 s
Bit rate                       : 9 855 kb/s
Maximum bit rate               : 23.8 Mb/s
Width                          : 1 920 pixels
Height                         : 1 080 pixels
Display aspect ratio           : 16:9
Frame rate mode                : Constant
Frame rate                     : 23.976 (23976/1000) FPS
Color space                    : YUV
Chroma subsampling             : 4:2:0
Bit depth                      : 8 bits
Scan type                      : Progressive
Bits/(Pixel*Frame)             : 0.198
Stream size                    : 255 MiB (97%)
Title                          : Core Media Video
Encoded date                   : UTC 2024-02-24 11:41:01
Tagged date                    : UTC 2024-03-22 12:41:43
Color range                    : Limited
Color primaries                : BT.709
Transfer characteristics       : BT.709
Matrix coefficients            : BT.709
Codec configuration box        : avcC

Audio
ID                             : 1
Format                         : AAC LC
Format/Info                    : Advanced Audio Codec Low Complexity
Codec ID                       : mp4a-40-2
Duration                       : 3 min 37 s
Duration_LastFrame             : -1 ms
Bit rate mode                  : Variable
Bit rate                       : 251 kb/s
Maximum bit rate               : 355 kb/s
Channel(s)                     : 2 channels
Channel layout                 : L R
Sampling rate                  : 48.0 kHz
Frame rate                     : 46.875 FPS (1024 SPF)
Compression mode               : Lossy
Stream size                    : 6.51 MiB (2%)
Title                          : Core Media Audio
Encoded date                   : UTC 2024-02-24 11:40:56
Tagged date                    : UTC 2024-03-22 12:41:43
</pre>
</div>
<div class="bbCodeBlock bbCodeVfcHH HiddenContent">
<div class="attribution type">Hidden Content:</div>
<blockquote>You must reply before you can see the hidden data contained here.</blockquote>
</div>
<div class="messageTextEndMarker">&nbsp;</div>
</blockquote>
</article>]]></description>
                <author><![CDATA[abby0511]]></author>
                </item>

                </channel></rss>